<svg width="32" height="31" viewBox="0 0 32 31" fill="none" xmlns="http://www.w3.org/2000/svg">
<path d="M29.239 6.79307C30.4137 8.4662 31.2594 10.3737 31.6858 12.4281L31.1962 12.5297C31.3954 13.4894 31.5 14.4826 31.5 15.5C31.5 16.5174 31.3954 17.5106 31.1962 18.4703L31.6858 18.5719C31.2594 20.6263 30.4137 22.5338 29.2389 24.2069L28.8297 23.9196C27.6874 25.5465 26.2228 26.9456 24.5239 28.0301L24.793 28.4516C23.0871 29.5407 21.1533 30.322 19.0759 30.7139L18.9832 30.2225C18.0182 30.4046 17.0209 30.5 16 30.5C14.9791 30.5 13.9818 30.4046 13.0168 30.2225L12.9241 30.7139C10.8467 30.322 8.91287 29.5407 7.207 28.4516L7.47605 28.0301C5.77722 26.9456 4.31257 25.5465 3.17025 23.9196L2.76105 24.2069C1.58626 22.5338 0.740579 20.6263 0.314202 18.5719L0.80377 18.4703C0.604585 17.5106 0.5 16.5174 0.5 15.5C0.5 14.4826 0.604585 13.4894 0.80377 12.5297L0.314203 12.4281C0.740579 10.3737 1.58626 8.4662 2.76105 6.79307L3.17025 7.08039C4.31257 5.45351 5.77722 4.05445 7.47606 2.96985L7.207 2.54842C8.91287 1.45933 10.8467 0.678038 12.9241 0.286146L13.0168 0.777481C13.9818 0.59545 14.9791 0.5 16 0.5C17.0209 0.5 18.0182 0.59545 18.9832 0.777481L19.0759 0.286147C21.1533 0.678039 23.0871 1.45933 24.793 2.54842L24.5239 2.96985C26.2228 4.05445 27.6874 5.45352 28.8297 7.0804L29.239 6.79307Z" stroke="#E72222" stroke-dasharray="5 5"/>
</svg>
