<svg width="32" height="7" viewBox="0 0 32 7" fill="none" xmlns="http://www.w3.org/2000/svg">
<path d="M3.81086 0.0612793L4.50508 2.19787H6.75162L4.93413 3.51836L5.62835 5.65495L3.81086 4.33446L1.99336 5.65495L2.68758 3.51836L0.870088 2.19787H3.11663L3.81086 0.0612793Z" fill="#F8E582"/>
<path d="M9.99445 0.0612793L10.6887 2.19787H12.9352L11.1177 3.51836L11.8119 5.65495L9.99445 4.33446L8.17696 5.65495L8.87118 3.51836L7.05368 2.19787H9.30023L9.99445 0.0612793Z" fill="#F8E582"/>
<path d="M16.18 0.0612793L16.8742 2.19787H19.1208L17.3033 3.51836L17.9975 5.65495L16.18 4.33446L14.3625 5.65495L15.0567 3.51836L13.2392 2.19787H15.4858L16.18 0.0612793Z" fill="#F8E582"/>
<path d="M21.9515 0.0612793L22.6457 2.19787H24.8922L23.0748 3.51836L23.769 5.65495L21.9515 4.33446L20.134 5.65495L20.8282 3.51836L19.0107 2.19787H21.2573L21.9515 0.0612793Z" fill="#F8E582"/>
<path d="M28.1351 0.0612793L28.8293 2.19787H31.0758L29.2583 3.51836L29.9526 5.65495L28.1351 4.33446L26.3176 5.65495L27.0118 3.51836L25.1943 2.19787H27.4409L28.1351 0.0612793Z" fill="#F8E582"/>
</svg>
