<svg width="13" height="13" viewBox="0 0 13 13" fill="none" xmlns="http://www.w3.org/2000/svg">
<g id="facebook 1" clip-path="url(#clip0_0_743)">
<path id="Vector" d="M7.38412 12.8505H5.35566C5.01685 12.8505 4.74123 12.5749 4.74123 12.2361V7.6608H3.55779C3.21897 7.6608 2.94336 7.38509 2.94336 7.04637V5.08585C2.94336 4.74704 3.21897 4.47142 3.55779 4.47142H4.74123V3.48967C4.74123 2.51622 5.0469 1.68802 5.62509 1.09476C6.20589 0.498784 7.01756 0.183838 7.97236 0.183838L9.51935 0.18635C9.85759 0.18693 10.1327 0.462545 10.1327 0.800781V2.62107C10.1327 2.95989 9.8572 3.2355 9.51848 3.2355L8.47691 3.23589C8.15926 3.23589 8.07837 3.29958 8.06107 3.3191C8.03256 3.35147 7.99864 3.44299 7.99864 3.6957V4.47132H9.44021C9.54873 4.47132 9.65388 4.49809 9.74423 4.54854C9.93915 4.65745 10.0603 4.86339 10.0603 5.08595L10.0596 7.04646C10.0596 7.38509 9.78395 7.6607 9.44514 7.6607H7.99864V12.2361C7.99864 12.5749 7.72293 12.8505 7.38412 12.8505ZM5.48381 12.1079H7.25597V7.32836C7.25597 7.10213 7.44007 6.91813 7.6662 6.91813H9.31699L9.31767 5.21399H7.66611C7.43997 5.21399 7.25597 5.02999 7.25597 4.80376V3.6957C7.25597 3.40559 7.28545 3.07566 7.50443 2.82769C7.76903 2.52791 8.18603 2.49332 8.47672 2.49332L9.39015 2.49293V0.928731L7.97178 0.926412C6.43734 0.926412 5.48381 1.90865 5.48381 3.48967V4.80376C5.48381 5.0299 5.2998 5.21399 5.07367 5.21399H3.68593V6.91813H5.07367C5.2998 6.91813 5.48381 7.10213 5.48381 7.32836V12.1079ZM9.5179 0.928925H9.518H9.5179Z" fill="white"/>
</g>
<defs>
<clipPath id="clip0_0_743">
<rect width="12.6419" height="12.6667" fill="white" transform="translate(0.208984 0.208496)"/>
</clipPath>
</defs>
</svg>
