<svg width="15" height="15" viewBox="0 0 15 15" fill="none" xmlns="http://www.w3.org/2000/svg">
<g id="viber (1) 1" clip-path="url(#clip0_0_733)">
<g id="Group">
<g id="Group_2">
<path id="Vector" d="M8.92879 0H6.07168C3.07916 0 0.644531 2.43406 0.644531 5.42601V7.99975C0.644531 10.2279 2.01367 12.2303 4.07238 13.0458V14.7143C4.07238 14.8275 4.13894 14.9297 4.24235 14.9754C4.27948 14.992 4.3189 15 4.35804 15C4.42745 15 4.4963 14.9746 4.54971 14.926L6.20622 13.4258H8.92879C11.9213 13.4258 14.3559 10.9917 14.3559 7.99975V5.42601C14.3559 2.43406 11.9213 0 8.92879 0ZM13.7846 7.99975C13.7846 10.6766 11.6065 12.8544 8.92879 12.8544H6.09596C6.02512 12.8544 5.95685 12.8807 5.90429 12.9284L4.64369 14.0702V12.8479C4.64369 12.7268 4.56742 12.6188 4.45316 12.5788C2.517 11.8941 1.21584 10.0539 1.21584 7.99975V5.42601C1.21584 2.74914 3.39424 0.571309 6.07168 0.571309H8.92879C11.6065 0.571309 13.7846 2.74914 13.7846 5.42601V7.99975Z" fill="white"/>
<path id="Vector_2" d="M11.2753 8.71051L9.51962 7.57018C9.32766 7.44535 9.09914 7.40307 8.87547 7.44935C8.65152 7.49648 8.45899 7.62874 8.33415 7.82156L8.2516 7.94839C7.49176 7.6973 6.65394 7.37651 6.15233 5.92453L6.36 5.74399C6.71649 5.43406 6.75391 4.89188 6.44398 4.53482L5.07055 2.95486C4.96715 2.83574 4.78661 2.82346 4.66749 2.92658L3.8051 3.67614C3.04869 4.33372 3.40204 5.30637 3.51831 5.62602C3.52345 5.6403 3.52973 5.65401 3.53716 5.66744C3.56715 5.72114 4.28329 6.99916 5.4399 8.1772C6.60109 9.36009 8.69751 10.4524 8.76178 10.4841C9.00116 10.6395 9.27053 10.7141 9.53705 10.7141C10.0049 10.7141 10.4637 10.4847 10.7374 10.0642L11.3595 9.10614C11.4452 8.97332 11.4075 8.79649 11.2753 8.71051ZM10.258 9.75287C10.0007 10.1494 9.46877 10.2619 9.04886 9.9911C9.02801 9.98025 6.9453 8.89562 5.84753 7.77728C4.82146 6.73207 4.14018 5.57088 4.04734 5.40892C3.8211 4.77448 3.86109 4.38456 4.17988 4.10748L4.82689 3.54531L6.01293 4.9096C6.11833 5.03071 6.10605 5.20782 5.9855 5.31265L5.63501 5.61716C5.54959 5.69143 5.51589 5.80884 5.54931 5.91681C6.1469 7.85869 7.30894 8.24004 8.15733 8.51855L8.28102 8.5594C8.40471 8.60111 8.54011 8.5534 8.61095 8.44428L8.81348 8.13235C8.85519 8.06779 8.91918 8.02409 8.99345 8.00837C9.068 7.99238 9.14399 8.00723 9.20854 8.04922L10.7248 9.03387L10.258 9.75287Z" fill="white"/>
<path id="Vector_3" d="M8.15309 4.64107C8.00113 4.59736 7.84316 4.68563 7.80003 4.8376C7.75689 4.98928 7.84487 5.14725 7.99656 5.19038C8.42218 5.3115 8.76125 5.65114 8.88123 6.07706C8.91665 6.20274 9.03119 6.2853 9.15603 6.2853C9.18173 6.2853 9.20773 6.28187 9.23372 6.27473C9.38541 6.23188 9.47396 6.0742 9.43111 5.92223C9.25772 5.30693 8.76782 4.81589 8.15309 4.64107Z" fill="white"/>
<path id="Vector_4" d="M10.3266 6.34708C10.3523 6.34708 10.3783 6.34365 10.4043 6.33651C10.5562 6.29366 10.6445 6.1357 10.6017 5.98401C10.2646 4.78912 9.31364 3.83618 8.11961 3.49625C7.96792 3.45255 7.80996 3.54138 7.76682 3.69307C7.72369 3.84475 7.81167 4.00272 7.96335 4.04585C8.968 4.3315 9.76812 5.13391 10.0518 6.13912C10.0875 6.26481 10.2017 6.34708 10.3266 6.34708Z" fill="white"/>
<path id="Vector_5" d="M7.99684 2.16573C7.84488 2.12202 7.68691 2.21029 7.64378 2.36254C7.60064 2.51423 7.68862 2.67219 7.84031 2.71533C9.54252 3.19951 10.8985 4.55865 11.379 6.26201C11.4144 6.3877 11.529 6.47025 11.6538 6.47025C11.6795 6.47025 11.7055 6.46683 11.7315 6.45968C11.8832 6.41684 11.9717 6.25887 11.9289 6.10719C11.395 4.21415 9.88845 2.70419 7.99684 2.16573Z" fill="white"/>
</g>
</g>
</g>
<defs>
<clipPath id="clip0_0_733">
<rect width="15" height="15" fill="white"/>
</clipPath>
</defs>
</svg>
